<svg xmlns="http://www.w3.org/2000/svg" viewBox="0 0 71.334 44.177"><defs><style>.a{fill:#001f9b;}</style></defs><g transform="translate(14 1491.807)"><path class="a" d="M68.629,9.922H19.279a6.786,6.786,0,0,0,.4-5.412H68.629a2.706,2.706,0,0,1,0,5.412Zm-61.319,0h-4.6a2.706,2.706,0,1,1,0-5.412H6.914a6.786,6.786,0,0,0,.395,5.41Z" transform="translate(-14 -1492.709)"/><circle class="a" cx="5.863" cy="5.863" r="5.863" transform="translate(-6.569 -1491.807)"/><path class="a" d="M68.55,9.922h-25a6.786,6.786,0,0,0,.4-5.412h24.6a2.748,2.748,0,0,1,2.784,2.705A2.749,2.749,0,0,1,68.55,9.922Zm-36.966,0H2.784A2.749,2.749,0,0,1,0,7.215,2.748,2.748,0,0,1,2.784,4.51H31.189a6.786,6.786,0,0,0,.395,5.41Z" transform="translate(-14 -1477.983)"/><circle class="a" cx="5.863" cy="5.863" r="5.863" transform="translate(17.706 -1477.081)"/><path class="a" d="M68.629,9.02H55.616a6.786,6.786,0,0,0-.4-5.412H68.629a2.706,2.706,0,0,1,0,5.412Zm-25.773,0H2.706a2.706,2.706,0,1,1,0-5.412H43.251a6.785,6.785,0,0,0-.4,5.41Z" transform="translate(-14 -1460.257)"/><circle class="a" cx="5.863" cy="5.863" r="5.863" transform="translate(29.373 -1459.355)"/></g></svg>